<svg width="22" height="16" viewBox="0 0 22 16" fill="none" xmlns="http://www.w3.org/2000/svg">
<path fill-rule="evenodd" clip-rule="evenodd" d="M21.7556 7.345C21.8988 7.50998 21.9888 7.7223 21.999 7.95535C21.9997 7.97022 22 7.98511 22 8C22 8.2506 21.9078 8.47966 21.7555 8.65514L15.7593 15.6508C15.3998 16.0701 14.7685 16.1187 14.3492 15.7593C13.9299 15.3998 13.8813 14.7685 14.2407 14.3492L18.8258 9H1C0.447715 9 0 8.55229 0 8C0 7.44772 0.447715 7 1 7H18.8258L14.2407 1.65079C13.8813 1.23147 13.9299 0.600168 14.3492 0.240746C14.7685 -0.118676 15.3998 -0.0701144 15.7593 0.349211L21.7556 7.345Z" fill="#9C69E2"/>
</svg>
